<svg viewBox="0 0 1200 1200" xmlns="http://www.w3.org/2000/svg">
  <path d="M1105 50v-1l-2-3v-1l-2-1-3-3-1-1-5-2H750c-7 0-14 4-17 10l-75 150v2l-2 6v150H544V56l-1-6-1-1-1-3-1-1-1-1-3-3-1-1-6-2H187c-7 0-13 4-16 10L96 198l-1 1v1l-1 6v338c0 10 8 18 18 18h150v75h-75c-7 0-13 5-16 11L96 798l-1 1v1l-1 6v338c0 10 8 18 18 18h338l6-1 2-1 4-2 2-1 3-6 70-157h119v150c0 10 9 18 19 18h337l7-1 2-1 4-2 1-1 4-6 75-168 1-8V656l-1-6v-1l-2-3v-1l-2-1-3-3-1-1-5-2H862v-75h150l7-2 2-1 4-2 1-1 4-6 75-168 1-8V56l-1-6zM762 75h295l-56 113H705zM469 394h27l-27 61zm0-38V211l37-75v220zM199 75h296l-57 113H143zm-68 150h300v131H262v38h169v131H131zm68 450h63v113H143zm307 281h-37V811l37-75zm-68-168H300V675h195zm-307 37h131v169h38V825h131v300H131zm338 230v-61h27zm225-61h168v-38H694V825h300v300H694zm11-206 57-113h63v113zm326 267V811l38-75v235zm26-380-56 113H862V675zm-232-37h-75c-7 0-14 4-17 10l-75 150v2l-2 6v150H544V656l-1-6-1-1-1-3-1-1-1-1-3-3-1-1-6-2H300v-75h150l6-2 2-1 4-2 2-1 3-6 70-157h119v150c0 10 9 19 19 19h150zm0-282v169H694V225h300v300H862V356zm206 99V211l38-75v235z"/>
</svg>
