<svg viewBox="0 0 1200 1200" xmlns="http://www.w3.org/2000/svg">
	<path d="M788 975H188c-21 0-38-17-38-37v-75a38 38 0 0 0-75 0v75c0 62 50 112 113 112h600a38 38 0 0 0 0-75z"/>
	<path d="M675 863v150a38 38 0 0 0 75 0V863a38 38 0 0 0-75 0zM225 188v675a38 38 0 0 0 75 0V188a38 38 0 0 0-75 0z"/>
	<path d="M750 825V674a38 38 0 0 1 75 0v189c0 20-17 37-37 37H113c-21 0-38-17-38-37V263c0-63 50-113 113-113h225a38 38 0 0 1 0 75H188c-21 0-38 17-38 38v562zm139-337h-27c-20 0-37-17-37-38V300c0-21 17-37 37-37h225c21 0 38 16 38 37v153c-1 96-48 135-86 174-7 7-17 11-27 11H900a38 38 0 0 1-36-47l25-103zm161-40V337H900v75h38a38 38 0 0 1 36 47l-26 104h49c25-25 53-53 53-113v-2z"/>
	<path d="M514 488h-27c-20 0-37-17-37-38V300c0-21 17-37 37-37h225c21 0 38 16 38 37v153c-1 96-48 135-86 174-7 7-17 11-27 11H525a38 38 0 0 1-36-47l25-103zm161-40V337H525v75h38a38 38 0 0 1 36 47l-26 104h49c25-25 53-53 53-113v-2z"/>
</svg>
